<svg version="1.1" id="Solid" xmlns="http://www.w3.org/2000/svg" xmlns:xlink="http://www.w3.org/1999/xlink" x="0px" y="0px" viewBox="0 0 512 512" enable-background="new 0 0 512 512" xml:space="preserve">
<g>
	<path d="M453.616,263.53C445.802,275.812,432.105,284,416.5,284c-15.122,0-28.436-7.705-36.359-19.357
		c-0.165,58.367,3.787,203.33,45.803,235.357h70.228C467.125,456.572,456.704,319.087,453.616,263.53z" id="id_101" style="fill: rgb(255, 255, 255);"></path>
	<path d="M256.5,276c18.482,0,33.576-14.049,35.596-32h-71.191C222.924,261.951,238.018,276,256.5,276z" id="id_102" style="fill: rgb(255, 255, 255);"></path>
	<path d="M176.5,276c18.482,0,33.576-14.049,35.596-32h-71.191C142.924,261.951,158.018,276,176.5,276z" id="id_103" style="fill: rgb(255, 255, 255);"></path>
	<path d="M183.202,236h138.667c-61.044-41.472-62.169-131.083-61.55-152h-7.902C251.722,104.341,245.091,194.409,183.202,236z" id="id_104" style="fill: rgb(255, 255, 255);"></path>
	<path d="M416.5,276c18.482,0,33.576-14.049,35.596-32h-71.191C382.924,261.951,398.018,276,416.5,276z" id="id_105" style="fill: rgb(255, 255, 255);"></path>
	<path d="M336.5,276c18.482,0,33.576-14.049,35.596-32h-71.191C302.924,261.951,318.018,276,336.5,276z" id="id_106" style="fill: rgb(255, 255, 255);"></path>
	<path d="M96.5,276c18.482,0,33.576-14.049,35.596-32H60.904C62.924,261.951,78.018,276,96.5,276z" id="id_107" style="fill: rgb(255, 255, 255);"></path>
	<path d="M180.563,392.715c-0.352-1.957,0.785-3.879,2.672-4.508c60-20,68.035-87.586,69.102-104.402
		c-15.934-1.504-29.426-11.539-35.836-25.48c-6.965,15.141-22.273,25.676-40,25.676c-14.65,0-27.568-7.259-35.57-18.303
		c0.229,57.044-3.566,191.047-42.285,234.303h60.634C195.344,476.915,180.717,393.56,180.563,392.715z" id="id_108" style="fill: rgb(255, 255, 255);"></path>
	<path d="M324.008,394.66c-44.152-16.33-61.046-56.65-67.508-84.836c-6.462,28.186-23.355,68.506-67.508,84.836
		c2.345,15.359,9.685,77.203-17.407,105.34h169.83C314.323,471.863,321.663,410.02,324.008,394.66z" id="id_109" style="fill: rgb(255, 255, 255);"></path>
	<path d="M132.859,264.643C124.936,276.295,111.622,284,96.5,284c-15.604,0-29.302-8.188-37.116-20.47
		C56.297,319.087,45.876,456.572,16.828,500h70.228C129.072,467.972,133.024,323.01,132.859,264.643z" id="id_110" style="fill: rgb(255, 255, 255);"></path>
	<path d="M244.379,84h-17.324c-7.865,16.56-57.36,114.106-147.271,152h87.697C235.61,201.223,243.481,104.72,244.379,84z" id="id_111" style="fill: rgb(255, 255, 255);"></path>
	<path d="M372.07,265.697C364.068,276.741,351.15,284,336.5,284c-17.727,0-33.035-10.535-40-25.676
		c-6.41,13.941-19.902,23.977-35.836,25.48c1.066,16.816,9.102,84.402,69.102,104.402c1.887,0.629,3.023,2.551,2.672,4.508
		c-0.155,0.845-14.781,84.2,21.283,107.285h60.634C375.636,456.744,371.841,322.741,372.07,265.697z" id="id_112" style="fill: rgb(255, 255, 255);"></path>
	<path d="M268.358,84c-0.46,20.161,1.021,117.19,69.164,152h95.695c-89.911-37.894-139.406-135.44-147.271-152H268.358z" id="id_113" style="fill: rgb(255, 255, 255);"></path>
	<path d="M260.5,60.4c78.72,6,87.84-43.2,87.92-43.76c0.24-1.44-0.32-2.96-1.52-3.84c-1.2-0.88-2.88-1.04-4.16-0.4
		c-45.12,22.56-82.16-6.32-83.76-7.52c-1.2-0.96-2.8-1.12-4.24-0.48c-1.36,0.64-2.24,2.08-2.24,3.6v47.92c0,0.08,0,0.08,0,0.16V80h8
		V60.4z" id="id_114" style="fill: rgb(255, 255, 255);"></path>
</g>
</svg>